<svg width="161" height="50" viewBox="0 0 161 50" fill="none" xmlns="http://www.w3.org/2000/svg">
<path d="M36.41 17.0376V28.525C36.41 33.2774 32.5409 37.1401 27.7866 37.1401H22.9958V28.5226C22.9958 25.8848 20.8457 23.7398 18.205 23.7398C15.5643 23.7398 13.4142 25.8848 13.4142 28.5226V37.1401H8.62342C3.86904 37.1401 0 33.2755 0 28.525V17.0376C0 14.4169 1.17277 11.9689 3.21556 10.3241L12.7971 2.61934C15.9284 0.100316 20.4758 0.100316 23.6109 2.61934L33.1925 10.3241C35.2372 11.9689 36.41 14.415 36.41 17.0376Z" fill="url(#paint0_linear_294_9459)"/>
<g clip-path="url(#clip0_294_9459)">
<path d="M18.4486 38.3428C16.2874 38.3428 14.1748 37.702 12.3778 36.5013C10.5809 35.3006 9.18031 33.594 8.35326 31.5974C7.52622 29.6007 7.30983 27.4037 7.73145 25.284C8.15307 23.1644 9.19378 21.2174 10.722 19.6892C12.2501 18.161 14.1972 17.1203 16.3168 16.6987C18.4364 16.2771 20.6335 16.4934 22.6302 17.3205C24.6268 18.1475 26.3334 19.5481 27.5341 21.345C28.7348 23.142 29.3756 25.2546 29.3756 27.4158C29.3724 30.3128 28.2201 33.0903 26.1716 35.1388C24.1231 37.1873 21.3456 38.3396 18.4486 38.3428ZM18.4486 41.0746C15.4892 41.0733 12.6114 40.1049 10.2533 38.3169V45.8552C10.2532 46.4984 10.4349 47.1286 10.7774 47.6732C11.1198 48.2177 11.6091 48.6544 12.1889 48.933C12.7687 49.2116 13.4154 49.3208 14.0545 49.248C14.6937 49.1752 15.2992 48.9233 15.8015 48.5214L18.0224 46.7457C18.1434 46.6491 18.2937 46.5965 18.4486 46.5965C18.6034 46.5965 18.7537 46.6491 18.8747 46.7457L21.0956 48.5214C21.5979 48.9233 22.2035 49.1752 22.8426 49.248C23.4817 49.3208 24.1284 49.2116 24.7082 48.933C25.288 48.6544 25.7773 48.2177 26.1197 47.6732C26.4622 47.1286 26.6439 46.4984 26.6439 45.8552V38.3169C24.2856 40.1047 21.4079 41.0731 18.4486 41.0746Z" fill="url(#paint1_linear_294_9459)"/>
</g>
<rect x="16.248" y="24.3171" width="3.91418" height="11.2533" rx="1.95709" fill="white"/>
<circle cx="18.2051" cy="21.3814" r="1.95709" fill="white"/>
<ellipse cx="153.488" cy="29.9437" rx="1.71245" ry="2.20172" fill="#0A033C"/>
<path d="M48.0265 37.0381C47.1002 37.0381 46.3493 36.2872 46.3493 35.3609V24.482C46.3493 23.5557 47.1002 22.8048 48.0265 22.8048C48.9529 22.8048 49.7038 23.5557 49.7038 24.482V35.3609C49.7038 36.2872 48.9529 37.0381 48.0265 37.0381ZM48.0358 20.7847C47.5045 20.7847 47.0474 20.6086 46.6644 20.2565C46.2814 19.8982 46.0898 19.4688 46.0898 18.9684C46.0898 18.4619 46.2814 18.0325 46.6644 17.6804C47.0474 17.3221 47.5045 17.1429 48.0358 17.1429C48.5733 17.1429 49.0304 17.3221 49.4073 17.6804C49.7903 18.0325 49.9818 18.4619 49.9818 18.9684C49.9818 19.4688 49.7903 19.8982 49.4073 20.2565C49.0304 20.6086 48.5733 20.7847 48.0358 20.7847Z" fill="#0A033C"/>
<path d="M53.3015 37.0381V27.5492V19.7793C53.3015 18.8299 54.0711 18.0603 55.0204 18.0603C55.9698 18.0603 56.7394 18.8299 56.7394 19.7793V34.1563H65.0978V37.0381H53.3015Z" fill="#0A033C"/>
<path d="M74.2346 37.3161C72.8075 37.3161 71.5751 37.0196 70.5372 36.4266C69.5056 35.8273 68.7117 34.981 68.1557 33.8875C67.5997 32.7879 67.3217 31.4937 67.3217 30.0049C67.3217 28.5408 67.5997 27.2558 68.1557 26.15C68.7179 25.038 69.5025 24.1731 70.5094 23.5554C71.5164 22.9314 72.6994 22.6195 74.0585 22.6195C74.9357 22.6195 75.7635 22.7615 76.5419 23.0457C77.3265 23.3237 78.0184 23.7561 78.6176 24.343C79.223 24.9299 79.6987 25.6774 80.0447 26.5855C80.3906 27.4875 80.5636 28.5624 80.5636 29.8103V30.8389H68.8971V28.5778H77.3481C77.3419 27.9353 77.2029 27.3639 76.9311 26.8635C76.6593 26.3569 76.2794 25.9585 75.7913 25.6681C75.3095 25.3778 74.7473 25.2326 74.1048 25.2326C73.4191 25.2326 72.8168 25.3994 72.2979 25.733C71.7789 26.0604 71.3743 26.4929 71.0839 27.0303C70.7998 27.5616 70.6546 28.1454 70.6484 28.7817V30.7555C70.6484 31.5833 70.7998 32.2937 71.1025 32.8868C71.4052 33.4736 71.8284 33.9246 72.372 34.2397C72.9156 34.5485 73.5519 34.703 74.2809 34.703C74.7689 34.703 75.2106 34.635 75.606 34.4991C76.0014 34.357 76.3442 34.1501 76.6346 33.8783C76.9249 33.6065 77.1442 33.2698 77.2925 32.8682L80.4246 33.2203C80.2269 34.0482 79.8501 34.7709 79.2941 35.3887C78.7443 36.0003 78.04 36.476 77.1813 36.8158C76.3226 37.1493 75.3404 37.3161 74.2346 37.3161Z" fill="#0A033C"/>
<path d="M87.4973 37.3254C86.5953 37.3254 85.783 37.1648 85.0602 36.8436C84.3436 36.5161 83.7752 36.0343 83.3551 35.398C82.9412 34.7617 82.7343 33.9771 82.7343 33.0443C82.7343 32.2412 82.8825 31.5771 83.1791 31.052C83.4756 30.5269 83.8802 30.1068 84.393 29.7917C84.9057 29.4767 85.4833 29.2388 86.1258 29.0782C86.7745 28.9114 87.4448 28.791 88.1367 28.7168C88.9706 28.6303 89.6471 28.5531 90.166 28.4852C90.6849 28.411 91.0618 28.2998 91.2965 28.1516C91.5375 27.9971 91.6579 27.7593 91.6579 27.438V27.3824C91.6579 26.6844 91.451 26.1438 91.0371 25.7608C90.6232 25.3778 90.027 25.1863 89.2486 25.1863C88.427 25.1863 87.7753 25.3654 87.2934 25.7237C87.2136 25.7839 87.1381 25.8458 87.067 25.9096C86.4944 26.423 85.7788 26.915 85.0175 26.8069C84.0554 26.6703 83.413 25.6837 83.9839 24.8974C84.1171 24.714 84.2627 24.5416 84.4208 24.3801C84.9891 23.7932 85.6841 23.3546 86.5057 23.0642C87.3274 22.7677 88.2355 22.6195 89.2301 22.6195C89.9158 22.6195 90.5985 22.6998 91.278 22.8604C91.9575 23.021 92.5784 23.2866 93.1406 23.6573C93.7027 24.0218 94.1537 24.5191 94.4935 25.1492C94.8394 25.7793 95.0124 26.567 95.0124 27.5122V37.0381H91.7877V35.0829H91.6765C91.4726 35.4783 91.1853 35.8489 90.8147 36.1949C90.4502 36.5347 89.99 36.8096 89.434 37.0196C88.8841 37.2235 88.2386 37.3254 87.4973 37.3254ZM88.3683 34.8605C89.0417 34.8605 89.6255 34.7277 90.1197 34.4621C90.6139 34.1902 90.9938 33.8319 91.2595 33.3871C91.5313 32.9424 91.6672 32.4574 91.6672 31.9323V30.2551C91.5622 30.3415 91.383 30.4219 91.1297 30.496C90.8826 30.5701 90.6046 30.635 90.2957 30.6906C89.9869 30.7462 89.6811 30.7956 89.3784 30.8389C89.0757 30.8821 88.8131 30.9192 88.5907 30.95C88.0903 31.018 87.6424 31.1292 87.2471 31.2836C86.8517 31.4381 86.5397 31.6543 86.3111 31.9323C86.0826 32.2041 85.9683 32.5562 85.9683 32.9887C85.9683 33.6064 86.1938 34.0729 86.6447 34.3879C87.0957 34.703 87.6702 34.8605 88.3683 34.8605Z" fill="#0A033C"/>
<path d="M98.3854 37.0381V24.4311C98.3854 23.5329 99.1135 22.8048 100.012 22.8048C100.91 22.8048 101.638 23.5329 101.638 24.4311V25.177H101.786C102.046 24.3554 102.49 23.7222 103.121 23.2774C103.757 22.8264 104.483 22.6009 105.298 22.6009C105.484 22.6009 105.691 22.6102 105.919 22.6287C106.154 22.6411 106.348 22.6627 106.503 22.6936V25.7793C106.361 25.7299 106.135 25.6867 105.826 25.6496C105.524 25.6064 105.23 25.5847 104.946 25.5847C104.335 25.5847 103.785 25.7176 103.297 25.9832C102.815 26.2427 102.435 26.6041 102.157 27.0674C101.879 27.5307 101.74 28.0651 101.74 28.6705V37.0381H98.3854Z" fill="#0A033C"/>
<path d="M112.086 28.6983V37.0381H108.731V24.4079C108.731 23.5225 109.449 22.8048 110.335 22.8048C111.22 22.8048 111.938 23.5225 111.938 24.4079V25.2233H112.104C112.432 24.4264 112.954 23.7932 113.671 23.3237C114.393 22.8542 115.286 22.6195 116.349 22.6195C117.331 22.6195 118.186 22.8295 118.915 23.2496C119.651 23.6697 120.219 24.2782 120.62 25.0751C121.028 25.872 121.229 26.8388 121.223 27.9755V37.0381H117.868V28.4944C117.868 27.5431 117.621 26.7987 117.127 26.2612C116.639 25.7237 115.962 25.455 115.098 25.455C114.511 25.455 113.989 25.5847 113.532 25.8442C113.081 26.0975 112.725 26.4651 112.466 26.9469C112.213 27.4288 112.086 28.0126 112.086 28.6983Z" fill="#0A033C"/>
<path d="M126.31 37.0381C125.384 37.0381 124.633 36.2872 124.633 35.3609V24.482C124.633 23.5557 125.384 22.8048 126.31 22.8048C127.236 22.8048 127.987 23.5557 127.987 24.482V35.3609C127.987 36.2872 127.236 37.0381 126.31 37.0381ZM126.319 20.7847C125.788 20.7847 125.331 20.6086 124.948 20.2565C124.565 19.8982 124.373 19.4688 124.373 18.9684C124.373 18.4619 124.565 18.0325 124.948 17.6804C125.331 17.3221 125.788 17.1429 126.319 17.1429C126.857 17.1429 127.314 17.3221 127.691 17.6804C128.074 18.0325 128.265 18.4619 128.265 18.9684C128.265 19.4688 128.074 19.8982 127.691 20.2565C127.314 20.6086 126.857 20.7847 126.319 20.7847Z" fill="#0A033C"/>
<path d="M134.791 28.6983V37.0381H131.437V24.4079C131.437 23.5225 132.154 22.8048 133.04 22.8048C133.925 22.8048 134.643 23.5225 134.643 24.4079V25.2233H134.81C135.137 24.4264 135.659 23.7932 136.376 23.3237C137.099 22.8542 137.991 22.6195 139.054 22.6195C140.036 22.6195 140.892 22.8295 141.621 23.2496C142.356 23.6697 142.924 24.2782 143.326 25.0751C143.733 25.872 143.934 26.8388 143.928 27.9755V37.0381H140.574V28.4944C140.574 27.5431 140.326 26.7987 139.832 26.2612C139.344 25.7237 138.668 25.455 137.803 25.455C137.216 25.455 136.694 25.5847 136.237 25.8442C135.786 26.0975 135.431 26.4651 135.171 26.9469C134.918 27.4288 134.791 28.0126 134.791 28.6983Z" fill="#0A033C"/>
<path d="M153.528 42.6722C152.323 42.6722 151.289 42.5085 150.424 42.1811C149.559 41.8598 148.864 41.4274 148.339 40.8838C147.814 40.3401 147.449 39.7378 147.245 39.0768L150.266 38.3447C150.402 38.6227 150.6 38.8976 150.859 39.1694C151.119 39.4474 151.468 39.676 151.906 39.8552C152.351 40.0405 152.91 40.1332 153.584 40.1332C154.535 40.1332 155.323 39.9015 155.947 39.4382C156.571 38.981 156.883 38.2274 156.883 37.1771V34.4806H156.716C156.543 34.8265 156.29 35.1818 155.956 35.5462C155.629 35.9107 155.193 36.2165 154.649 36.4636C154.112 36.7107 153.435 36.8343 152.62 36.8343C151.527 36.8343 150.535 36.5779 149.645 36.0652C148.762 35.5462 148.058 34.774 147.533 33.7485C147.014 32.7169 146.754 31.4257 146.754 29.8751C146.754 28.3122 147.014 26.9932 147.533 25.9183C148.058 24.8372 148.765 24.0187 149.655 23.4627C150.544 22.9005 151.536 22.6195 152.629 22.6195C153.463 22.6195 154.149 22.7615 154.686 23.0457C155.23 23.3237 155.663 23.6604 155.984 24.0558C156.305 24.445 156.549 24.8125 156.716 25.1585H156.901V22.8048H160.209V37.2698C160.209 38.4868 159.919 39.4938 159.338 40.2907C158.758 41.0876 157.964 41.6838 156.957 42.0791C155.95 42.4745 154.807 42.6722 153.528 42.6722ZM153.556 34.2026C154.266 34.2026 154.872 34.0296 155.372 33.6837C155.873 33.3377 156.252 32.8404 156.512 32.1918C156.771 31.5431 156.901 30.7647 156.901 29.8566C156.901 28.9608 156.771 28.1763 156.512 27.5029C156.259 26.8295 155.882 26.3075 155.381 25.9369C154.887 25.56 154.279 25.3716 153.556 25.3716C152.808 25.3716 152.184 25.5662 151.684 25.9554C151.184 26.3446 150.807 26.879 150.554 27.5585C150.3 28.2319 150.174 28.9979 150.174 29.8566C150.174 30.7277 150.3 31.4906 150.554 32.1454C150.813 32.7941 151.193 33.3007 151.693 33.6651C152.2 34.0234 152.821 34.2026 153.556 34.2026Z" fill="#0A033C"/>
<defs>
<linearGradient id="paint0_linear_294_9459" x1="0" y1="0.730072" x2="41.9174" y2="8.90688" gradientUnits="userSpaceOnUse">
<stop stop-color="#9C4DF4"/>
<stop offset="1" stop-color="#B071F6"/>
</linearGradient>
<linearGradient id="paint1_linear_294_9459" x1="13.939" y1="16.4887" x2="32.514" y2="43.3904" gradientUnits="userSpaceOnUse">
<stop stop-color="#FFA093"/>
<stop offset="1" stop-color="#FF6652"/>
</linearGradient>
<clipPath id="clip0_294_9459">
<rect width="32.7812" height="32.7812" fill="white" transform="translate(2.05859 16.4887)"/>
</clipPath>
</defs>
</svg>
