<svg width="161" height="50" viewBox="0 0 161 50" fill="none" xmlns="http://www.w3.org/2000/svg">
<path d="M36.41 17.0376V28.525C36.41 33.2774 32.5409 37.1401 27.7866 37.1401H22.9958V28.5226C22.9958 25.8848 20.8457 23.7398 18.205 23.7398C15.5643 23.7398 13.4142 25.8848 13.4142 28.5226V37.1401H8.62342C3.86904 37.1401 0 33.2755 0 28.525V17.0376C0 14.4169 1.17277 11.9689 3.21556 10.3241L12.7971 2.61934C15.9284 0.100316 20.4758 0.100316 23.6109 2.61934L33.1925 10.3241C35.2372 11.9689 36.41 14.415 36.41 17.0376Z" fill="url(#paint0_linear_340_7787)"/>
<g clip-path="url(#clip0_340_7787)">
<path d="M18.449 38.3428C16.2879 38.3428 14.1752 37.702 12.3783 36.5013C10.5813 35.3006 9.1808 33.594 8.35375 31.5974C7.52671 29.6007 7.31031 27.4037 7.73194 25.284C8.15356 23.1644 9.19426 21.2174 10.7224 19.6892C12.2506 18.161 14.1976 17.1203 16.3173 16.6987C18.4369 16.2771 20.634 16.4934 22.6307 17.3205C24.6273 18.1475 26.3339 19.5481 27.5346 21.345C28.7353 23.142 29.3761 25.2546 29.3761 27.4158C29.3729 30.3128 28.2206 33.0903 26.1721 35.1388C24.1235 37.1873 21.3461 38.3396 18.449 38.3428ZM18.449 41.0746C15.4897 41.0733 12.6119 40.1049 10.2537 38.3169V45.8552C10.2537 46.4984 10.4354 47.1286 10.7779 47.6732C11.1203 48.2177 11.6096 48.6544 12.1894 48.933C12.7692 49.2116 13.4159 49.3208 14.055 49.248C14.6942 49.1752 15.2997 48.9233 15.802 48.5214L18.0229 46.7457C18.1439 46.6491 18.2942 46.5965 18.449 46.5965C18.6039 46.5965 18.7542 46.6491 18.8752 46.7457L21.0961 48.5214C21.5984 48.9233 22.2039 49.1752 22.8431 49.248C23.4822 49.3208 24.1289 49.2116 24.7087 48.933C25.2885 48.6544 25.7778 48.2177 26.1202 47.6732C26.4627 47.1286 26.6444 46.4984 26.6444 45.8552V38.3169C24.2861 40.1047 21.4084 41.0731 18.449 41.0746Z" fill="url(#paint1_linear_340_7787)"/>
</g>
<rect x="16.2476" y="24.3171" width="3.91418" height="11.2533" rx="1.95709" fill="white"/>
<circle cx="18.2046" cy="21.3814" r="1.95709" fill="white"/>
<ellipse cx="153.488" cy="29.9437" rx="1.71245" ry="2.20172" fill="white"/>
<path d="M48.0261 37.0381C47.0997 37.0381 46.3488 36.2872 46.3488 35.3609V24.482C46.3488 23.5557 47.0997 22.8048 48.0261 22.8048C48.9524 22.8048 49.7033 23.5557 49.7033 24.482V35.3609C49.7033 36.2872 48.9524 37.0381 48.0261 37.0381ZM48.0353 20.7847C47.504 20.7847 47.0469 20.6086 46.6639 20.2565C46.2809 19.8982 46.0894 19.4688 46.0894 18.9684C46.0894 18.4619 46.2809 18.0325 46.6639 17.6804C47.0469 17.3221 47.504 17.1429 48.0353 17.1429C48.5728 17.1429 49.0299 17.3221 49.4068 17.6804C49.7898 18.0325 49.9813 18.4619 49.9813 18.9684C49.9813 19.4688 49.7898 19.8982 49.4068 20.2565C49.0299 20.6086 48.5728 20.7847 48.0353 20.7847Z" fill="white"/>
<path d="M53.301 37.0381V27.5492V19.7793C53.301 18.8299 54.0706 18.0603 55.02 18.0603C55.9693 18.0603 56.7389 18.8299 56.7389 19.7793V34.1563H65.0973V37.0381H53.301Z" fill="white"/>
<path d="M74.2341 37.3161C72.807 37.3161 71.5746 37.0196 70.5367 36.4266C69.5051 35.8273 68.7112 34.981 68.1552 33.8875C67.5993 32.7879 67.3213 31.4937 67.3213 30.0049C67.3213 28.5408 67.5993 27.2558 68.1552 26.15C68.7174 25.038 69.502 24.1731 70.5089 23.5554C71.5159 22.9314 72.6989 22.6195 74.058 22.6195C74.9352 22.6195 75.7631 22.7615 76.5414 23.0457C77.326 23.3237 78.0179 23.7561 78.6171 24.343C79.2225 24.9299 79.6982 25.6774 80.0442 26.5855C80.3901 27.4875 80.5631 28.5624 80.5631 29.8103V30.8389H68.8966V28.5778H77.3476C77.3414 27.9353 77.2024 27.3639 76.9306 26.8635C76.6588 26.3569 76.2789 25.9585 75.7908 25.6681C75.309 25.3778 74.7468 25.2326 74.1043 25.2326C73.4186 25.2326 72.8163 25.3994 72.2974 25.733C71.7785 26.0604 71.3738 26.4929 71.0835 27.0303C70.7993 27.5616 70.6541 28.1454 70.6479 28.7817V30.7555C70.6479 31.5833 70.7993 32.2937 71.102 32.8868C71.4047 33.4736 71.8279 33.9246 72.3715 34.2397C72.9151 34.5485 73.5514 34.703 74.2804 34.703C74.7684 34.703 75.2101 34.635 75.6055 34.4991C76.0009 34.357 76.3438 34.1501 76.6341 33.8783C76.9245 33.6065 77.1438 33.2698 77.292 32.8682L80.4241 33.2203C80.2264 34.0482 79.8496 34.7709 79.2936 35.3887C78.7438 36.0003 78.0395 36.476 77.1808 36.8158C76.3221 37.1493 75.3399 37.3161 74.2341 37.3161Z" fill="white"/>
<path d="M87.4968 37.3254C86.5948 37.3254 85.7825 37.1648 85.0597 36.8436C84.3431 36.5161 83.7747 36.0343 83.3546 35.398C82.9407 34.7617 82.7338 33.9771 82.7338 33.0443C82.7338 32.2412 82.882 31.5771 83.1786 31.052C83.4751 30.5269 83.8797 30.1068 84.3925 29.7917C84.9052 29.4767 85.4829 29.2388 86.1253 29.0782C86.774 28.9114 87.4443 28.791 88.1362 28.7168C88.9701 28.6303 89.6466 28.5531 90.1655 28.4852C90.6845 28.411 91.0613 28.2998 91.296 28.1516C91.537 27.9971 91.6574 27.7593 91.6574 27.438V27.3824C91.6574 26.6844 91.4505 26.1438 91.0366 25.7608C90.6227 25.3778 90.0265 25.1863 89.2481 25.1863C88.4265 25.1863 87.7748 25.3654 87.2929 25.7237C87.2131 25.7839 87.1376 25.8458 87.0665 25.9096C86.4939 26.423 85.7784 26.915 85.017 26.8069C84.0549 26.6703 83.4125 25.6837 83.9835 24.8974C84.1166 24.714 84.2623 24.5416 84.4203 24.3801C84.9886 23.7932 85.6836 23.3546 86.5053 23.0642C87.3269 22.7677 88.235 22.6195 89.2296 22.6195C89.9153 22.6195 90.598 22.6998 91.2775 22.8604C91.9571 23.021 92.5779 23.2866 93.1401 23.6573C93.7022 24.0218 94.1532 24.5191 94.493 25.1492C94.8389 25.7793 95.0119 26.567 95.0119 27.5122V37.0381H91.7872V35.0829H91.676C91.4721 35.4783 91.1848 35.8489 90.8142 36.1949C90.4497 36.5347 89.9895 36.8096 89.4335 37.0196C88.8837 37.2235 88.2381 37.3254 87.4968 37.3254ZM88.3678 34.8605C89.0412 34.8605 89.625 34.7277 90.1192 34.4621C90.6134 34.1902 90.9933 33.8319 91.259 33.3871C91.5308 32.9424 91.6667 32.4574 91.6667 31.9323V30.2551C91.5617 30.3415 91.3825 30.4219 91.1292 30.496C90.8821 30.5701 90.6041 30.635 90.2953 30.6906C89.9864 30.7462 89.6806 30.7956 89.3779 30.8389C89.0752 30.8821 88.8126 30.9192 88.5902 30.95C88.0898 31.018 87.6419 31.1292 87.2466 31.2836C86.8512 31.4381 86.5392 31.6543 86.3107 31.9323C86.0821 32.2041 85.9678 32.5562 85.9678 32.9887C85.9678 33.6064 86.1933 34.0729 86.6443 34.3879C87.0952 34.703 87.6697 34.8605 88.3678 34.8605Z" fill="white"/>
<path d="M98.3849 37.0381V24.4311C98.3849 23.5329 99.113 22.8048 100.011 22.8048C100.909 22.8048 101.637 23.5329 101.637 24.4311V25.177H101.786C102.045 24.3554 102.49 23.7222 103.12 23.2774C103.756 22.8264 104.482 22.6009 105.298 22.6009C105.483 22.6009 105.69 22.6102 105.919 22.6287C106.153 22.6411 106.348 22.6627 106.502 22.6936V25.7793C106.36 25.7299 106.135 25.6867 105.826 25.6496C105.523 25.6064 105.23 25.5847 104.946 25.5847C104.334 25.5847 103.784 25.7176 103.296 25.9832C102.814 26.2427 102.434 26.6041 102.156 27.0674C101.878 27.5307 101.739 28.0651 101.739 28.6705V37.0381H98.3849Z" fill="white"/>
<path d="M112.085 28.6983V37.0381H108.731V24.4079C108.731 23.5225 109.449 22.8048 110.334 22.8048C111.219 22.8048 111.937 23.5225 111.937 24.4079V25.2233H112.104C112.431 24.4264 112.953 23.7932 113.67 23.3237C114.393 22.8542 115.285 22.6195 116.348 22.6195C117.33 22.6195 118.186 22.8295 118.915 23.2496C119.65 23.6697 120.218 24.2782 120.62 25.0751C121.028 25.872 121.228 26.8388 121.222 27.9755V37.0381H117.868V28.4944C117.868 27.5431 117.621 26.7987 117.126 26.2612C116.638 25.7237 115.962 25.455 115.097 25.455C114.51 25.455 113.988 25.5847 113.531 25.8442C113.08 26.0975 112.725 26.4651 112.465 26.9469C112.212 27.4288 112.085 28.0126 112.085 28.6983Z" fill="white"/>
<path d="M126.31 37.0381C125.383 37.0381 124.632 36.2872 124.632 35.3609V24.482C124.632 23.5557 125.383 22.8048 126.31 22.8048C127.236 22.8048 127.987 23.5557 127.987 24.482V35.3609C127.987 36.2872 127.236 37.0381 126.31 37.0381ZM126.319 20.7847C125.788 20.7847 125.33 20.6086 124.947 20.2565C124.564 19.8982 124.373 19.4688 124.373 18.9684C124.373 18.4619 124.564 18.0325 124.947 17.6804C125.33 17.3221 125.788 17.1429 126.319 17.1429C126.856 17.1429 127.313 17.3221 127.69 17.6804C128.073 18.0325 128.265 18.4619 128.265 18.9684C128.265 19.4688 128.073 19.8982 127.69 20.2565C127.313 20.6086 126.856 20.7847 126.319 20.7847Z" fill="white"/>
<path d="M134.791 28.6983V37.0381H131.436V24.4079C131.436 23.5225 132.154 22.8048 133.039 22.8048C133.925 22.8048 134.642 23.5225 134.642 24.4079V25.2233H134.809C135.137 24.4264 135.659 23.7932 136.375 23.3237C137.098 22.8542 137.991 22.6195 139.053 22.6195C140.036 22.6195 140.891 22.8295 141.62 23.2496C142.355 23.6697 142.924 24.2782 143.325 25.0751C143.733 25.872 143.934 26.8388 143.928 27.9755V37.0381H140.573V28.4944C140.573 27.5431 140.326 26.7987 139.832 26.2612C139.344 25.7237 138.667 25.455 137.802 25.455C137.215 25.455 136.693 25.5847 136.236 25.8442C135.785 26.0975 135.43 26.4651 135.171 26.9469C134.917 27.4288 134.791 28.0126 134.791 28.6983Z" fill="white"/>
<path d="M153.528 42.6722C152.323 42.6722 151.288 42.5085 150.423 42.1811C149.558 41.8598 148.863 41.4274 148.338 40.8838C147.813 40.3401 147.449 39.7378 147.245 39.0768L150.266 38.3447C150.402 38.6227 150.599 38.8976 150.859 39.1694C151.118 39.4474 151.467 39.676 151.906 39.8552C152.351 40.0405 152.91 40.1332 153.583 40.1332C154.535 40.1332 155.322 39.9015 155.946 39.4382C156.57 38.981 156.882 38.2274 156.882 37.1771V34.4806H156.715C156.542 34.8265 156.289 35.1818 155.955 35.5462C155.628 35.9107 155.193 36.2165 154.649 36.4636C154.111 36.7107 153.435 36.8343 152.62 36.8343C151.526 36.8343 150.535 36.5779 149.645 36.0652C148.762 35.5462 148.057 34.774 147.532 33.7485C147.013 32.7169 146.754 31.4257 146.754 29.8751C146.754 28.3122 147.013 26.9932 147.532 25.9183C148.057 24.8372 148.765 24.0187 149.654 23.4627C150.544 22.9005 151.535 22.6195 152.629 22.6195C153.463 22.6195 154.148 22.7615 154.686 23.0457C155.23 23.3237 155.662 23.6604 155.983 24.0558C156.304 24.445 156.549 24.8125 156.715 25.1585H156.901V22.8048H160.209V37.2698C160.209 38.4868 159.918 39.4938 159.338 40.2907C158.757 41.0876 157.963 41.6838 156.956 42.0791C155.949 42.4745 154.806 42.6722 153.528 42.6722ZM153.555 34.2026C154.266 34.2026 154.871 34.0296 155.372 33.6837C155.872 33.3377 156.252 32.8404 156.511 32.1918C156.771 31.5431 156.901 30.7647 156.901 29.8566C156.901 28.9608 156.771 28.1763 156.511 27.5029C156.258 26.8295 155.881 26.3075 155.381 25.9369C154.887 25.56 154.278 25.3716 153.555 25.3716C152.808 25.3716 152.184 25.5662 151.684 25.9554C151.183 26.3446 150.806 26.879 150.553 27.5585C150.3 28.2319 150.173 28.9979 150.173 29.8566C150.173 30.7277 150.3 31.4906 150.553 32.1454C150.813 32.7941 151.192 33.3007 151.693 33.6651C152.199 34.0234 152.82 34.2026 153.555 34.2026Z" fill="white"/>
<defs>
<linearGradient id="paint0_linear_340_7787" x1="0" y1="0.730072" x2="41.9174" y2="8.90688" gradientUnits="userSpaceOnUse">
<stop stop-color="#9C4DF4"/>
<stop offset="1" stop-color="#B071F6"/>
</linearGradient>
<linearGradient id="paint1_linear_340_7787" x1="13.9395" y1="16.4887" x2="32.5145" y2="43.3904" gradientUnits="userSpaceOnUse">
<stop stop-color="#FFA093"/>
<stop offset="1" stop-color="#FF6652"/>
</linearGradient>
<clipPath id="clip0_340_7787">
<rect width="32.7812" height="32.7812" fill="white" transform="translate(2.05859 16.4887)"/>
</clipPath>
</defs>
</svg>
